<?xml version="1.0" standalone="no"?>
<!DOCTYPE svg PUBLIC "-//W3C//DTD SVG 20010904//EN"
 "http://www.w3.org/TR/2001/REC-SVG-20010904/DTD/svg10.dtd">
<svg version="1.0" xmlns="http://www.w3.org/2000/svg"
 width="500.000000pt" height="500.000000pt" viewBox="0 0 500.000000 500.000000"
 preserveAspectRatio="xMidYMid meet">
<metadata>
Created by potrace 1.14, written by Peter Selinger 2001-2017
</metadata>
<g transform="translate(0.000000,500.000000) scale(0.100000,-0.100000)"
fill="#000000" stroke="none">
<path d="M743 3798 c-253 -38 -458 -275 -465 -539 -3 -91 3 -124 42 -264 55
-192 64 -264 46 -380 -26 -164 -148 -335 -293 -409 -18 -9 -33 -20 -33 -25 0
-5 24 -23 53 -39 156 -88 269 -275 280 -466 5 -85 -3 -134 -58 -331 -60 -216
-50 -350 38 -507 92 -164 293 -286 467 -284 54 1 56 13 6 41 -106 59 -213 173
-259 275 -48 106 -56 240 -22 356 9 33 19 70 22 84 2 14 8 41 13 60 19 73 22
98 26 190 10 278 -142 516 -391 610 l-30 12 45 16 c77 29 123 58 182 114 76
74 130 160 164 265 24 73 28 105 29 193 0 58 -3 119 -7 135 -3 17 -13 64 -22
105 -9 41 -25 106 -35 145 -61 230 53 475 285 611 71 42 46 51 -83 32z"/>
<path d="M4115 3790 c-29 -6 -29 -7 45 -54 158 -102 262 -247 287 -396 10 -62
4 -162 -16 -242 -11 -48 -23 -100 -26 -115 -2 -16 -10 -55 -16 -88 -62 -337
98 -643 396 -756 l30 -11 -49 -19 c-217 -87 -369 -332 -368 -594 0 -82 8 -131
44 -270 49 -191 55 -226 52 -297 -4 -79 -31 -165 -78 -245 -39 -67 -151 -178
-220 -218 -52 -31 -52 -45 2 -44 191 4 396 140 485 321 80 162 83 289 12 533
-59 202 -58 193 -57 300 1 200 92 365 269 492 35 25 63 46 63 48 0 2 -26 18
-57 35 -136 77 -257 248 -286 405 -20 105 -12 183 33 365 23 91 44 198 46 238
14 251 -148 497 -381 581 -70 25 -167 39 -210 31z"/>
<path d="M1550 3247 c-3 -3 -25 -7 -50 -10 -191 -25 -366 -131 -454 -276 -106
-174 -92 -420 32 -583 79 -105 239 -196 487 -278 275 -90 346 -150 345 -294
-1 -106 -80 -192 -198 -217 -85 -17 -233 -6 -328 26 -77 26 -196 92 -241 134
-21 20 -22 20 -35 2 -7 -10 -56 -64 -108 -120 -52 -56 -96 -106 -98 -111 -8
-22 144 -130 262 -186 261 -124 677 -122 906 3 152 84 237 182 283 328 23 70
27 100 28 180 0 173 -45 296 -144 394 -100 98 -231 166 -462 241 -264 86 -324
130 -330 244 -6 118 74 186 229 192 137 6 281 -38 397 -121 l48 -34 83 97 c46
53 93 108 106 122 l22 25 -32 31 c-145 135 -362 210 -618 213 -69 1 -128 0
-130 -2z"/>
<path d="M3382 3239 c-311 -37 -559 -217 -691 -500 -43 -91 -78 -215 -89 -313
-9 -79 -9 -314 1 -391 7 -57 9 -71 23 -140 26 -134 104 -302 182 -394 120
-141 305 -233 517 -256 68 -8 247 -8 285 0 13 2 42 7 65 10 22 3 48 8 57 11 9
3 27 7 40 9 69 14 205 64 290 108 l98 50 0 66 c0 112 1 701 0 798 l0 91 -366
0 -366 0 6 -47 c22 -166 36 -265 40 -268 2 -3 57 -5 122 -6 l119 -2 3 -216 c2
-215 2 -215 -20 -227 -107 -57 -299 -67 -398 -20 -166 77 -233 255 -235 618 0
182 9 262 42 365 71 224 241 348 458 331 44 -3 101 -12 127 -20 54 -16 173
-79 204 -107 l21 -20 116 122 116 121 -27 22 c-108 89 -284 173 -401 192 -18
3 -43 8 -55 11 -36 8 -217 9 -284 2z"/>
</g>
</svg>
